{"title":"My.Week.With.Marilyn.2011.1080p.Blu-ray.DTS.x264-Zenstar75.mkv","uid":9966208,"size":8534788801,"categoryP":"video","categoryS":"hd___movies","magnet":"?xt=urn:btih:74f691063d88671d63a84732ea748f0e38319cba&amp;dn=My.Week.With.Marilyn.2011.1080p.Blu-ray.DTS.x264-Zenstar75.mkv&amp;tr=udp%3A%2F%2Ftracker.openbittorrent.com%3A80&amp;tr=udp%3A%2F%2Fopen.demonii.com%3A1337&amp;tr=udp%3A%2F%2Ftracker.coppersurfer.tk%3A6969&amp;tr=udp%3A%2F%2Fexodus.desync.com%3A6969","seeders":1,"leechers":0,"uploader":"zenstar75","files":-1,"time":1397574819,"description":"My.Week.With.Marilyn.2011.1080p.Blu-ray.DTS.x264-Zenstar75\n\n\n\nColin Clark, an employee of Sir Laurence Olivier's, documents the tense interaction between Olivier and Marilyn Monroe during production of The Prince and the Showgirl.\n\n\n &lt;a href=&quot;\nhttp://www.imdb.com/title/tt1655420/?ref_=rvi_tt&quot; rel=&quot;nofollow&quot; target=&quot;_NEW&quot;&gt;\nhttp://www.imdb.com/title/tt1655420/?ref_=rvi_tt&lt;/a&gt;\n\n\n\n\nFormat                                   : Matroska\nFormat version                           : Version 4 / Version 2\nFile size                                : 7.95 GiB\nDuration                                 : 1h 38mn\nOverall bit rate                         : 11.5 Mbps\nMovie name                               : My Week with Marilyn - Zenstar75\nEncoded date                             : UTC 2014-04-15 12:16:19\nWriting application                      : mkvmerge v6.8.0 ('Theme for Great Cities') 32bit built on Mar  2 2014 21:27:07\nWriting library                          : libebml v1.3.0 + libmatroska v1.4.1\n\nVideo\nID                                       : 1\nFormat                                   : AVC\nFormat/Info                              : Advanced Video Codec\nFormat profile                           : &lt;a class=&quot;__cf_email__&quot; href=&quot;/cdn-cgi/l/email-protection&quot; data-cfemail=&quot;3e765759567e720a100f&quot;&gt;[email&amp;#160;protected]&lt;/a&gt;&lt;script cf-hash='f9e31' type=&quot;text/javascript&quot;&gt;\n/* &lt;![CDATA[ */!function(){try{var t=&quot;currentScript&quot;in document?document.currentScript:function(){for(var t=document.getElementsByTagName(&quot;script&quot;),e=t.length;e--;)if(t[e].getAttribute(&quot;cf-hash&quot;))return t[e]}();if(t&amp;&amp;t.previousSibling){var e,r,n,i,c=t.previousSibling,a=c.getAttribute(&quot;data-cfemail&quot;);if(a){for(e=&quot;&quot;,r=parseInt(a.substr(0,2),16),n=2;a.length-n;n+=2)i=parseInt(a.substr(n,2),16)^r,e+=String.fromCharCode(i);e=document.createTextNode(e),c.parentNode.replaceChild(e,c)}}}catch(u){}}();/* ]]&gt; */&lt;/script&gt;\nFormat settings, CABAC                   : Yes\nFormat settings, ReFrames                : 4 frames\nCodec ID                                 : V_MPEG4/ISO/AVC\nDuration                                 : 1h 38mn\nBit rate                                 : 10 000 Kbps\nWidth                                    : 1 920 pixels\nHeight                                   : 816 pixels\nDisplay aspect ratio                     : 2.35:1\nFrame rate mode                          : Constant\nFrame rate                               : 23.976 fps\nColor space                              : YUV\nChroma subsampling                       : 4:2:0\nBit depth                                : 8 bits\nScan type                                : Progressive\nBits/(Pixel*Frame)                       : 0.266\nStream size                              : 6.75 GiB (85%)\nTitle                                    : My.Week.With.Marilyn.2011.1080p.Blu-ray.DTS.x264-Zenstar75\nWriting library                          : x264 core 120 r2164 da19765\nLanguage                                 : English\nDefault                                  : Yes\nForced                                   : No\n\nAudio\nID                                       : 2\nFormat                                   : DTS\nFormat/Info                              : Digital Theater Systems\nMode                                     : 16\nFormat settings, Endianness              : Big\nCodec ID                                 : A_DTS\nDuration                                 : 1h 38mn\nBit rate mode                            : Constant\nBit rate                                 : 1 509 Kbps\nChannel(s)                               : 6 channels\nChannel positions                        : Front: L C R, Side: L R, LFE\nSampling rate                            : 48.0 KHz\nBit depth                                : 24 bits\nCompression mode                         : Lossy\nStream size                              : 1.04 GiB (13%)\nTitle                                    : Endlish DTS @ 1.5 mbps - Zenstar75\nLanguage                                 : English\nDefault                                  : Yes\nForced                                   : No\n\nText #1\nID                                       : 3\nFormat                                   : UTF-8\nCodec ID                                 : S_TEXT/UTF8\nCodec ID/Info                            : UTF-8 Plain Text\nTitle                                    : English Subs  - Zenstar75\nLanguage                                 : English\nDefault                                  : No\nForced                                   : No\n\nText #2\nID                                       : 4\nFormat                                   : UTF-8\nCodec ID                                 : S_TEXT/UTF8\nCodec ID/Info                            : UTF-8 Plain Text\nTitle                                    : English Subs (for hard of hearing) - Zenstar75\nLanguage                                 : English\nDefault                                  : No\nForced                                   : No\n\n\n\nScreenshots:\n &lt;a href=&quot;\nhttp://imgur.com/a/AYSjC#0&quot; rel=&quot;nofollow&quot; target=&quot;_NEW&quot;&gt;\nhttp://imgur.com/a/AYSjC#0&lt;/a&gt;\n &lt;a href=&quot;\nhttp://imgur.com/a/AYSjC#1&quot; rel=&quot;nofollow&quot; target=&quot;_NEW&quot;&gt;\nhttp://imgur.com/a/AYSjC#1&lt;/a&gt;\n &lt;a href=&quot;\nhttp://imgur.com/a/AYSjC#2&quot; rel=&quot;nofollow&quot; target=&quot;_NEW&quot;&gt;\nhttp://imgur.com/a/AYSjC#2&lt;/a&gt;\n &lt;a href=&quot;\nhttp://imgur.com/a/AYSjC#3&quot; rel=&quot;nofollow&quot; target=&quot;_NEW&quot;&gt;\nhttp://imgur.com/a/AYSjC#3&lt;/a&gt;\n &lt;a href=&quot;\nhttp://imgur.com/a/AYSjC#4&quot; rel=&quot;nofollow&quot; target=&quot;_NEW&quot;&gt;\nhttp://imgur.com/a/AYSjC#4&lt;/a&gt;\n &lt;a href=&quot;\nhttp://imgur.com/a/AYSjC#5&quot; rel=&quot;nofollow&quot; target=&quot;_NEW&quot;&gt;\nhttp://imgur.com/a/AYSjC#5&lt;/a&gt;\n &lt;a href=&quot;\nhttp://imgur.com/a/AYSjC#6&quot; rel=&quot;nofollow&quot; target=&quot;_NEW&quot;&gt;\nhttp://imgur.com/a/AYSjC#6&lt;/a&gt;\n &lt;a href=&quot;\nhttp://imgur.com/a/AYSjC#7&quot; rel=&quot;nofollow&quot; target=&quot;_NEW&quot;&gt;\nhttp://imgur.com/a/AYSjC#7&lt;/a&gt;\n &lt;a href=&quot;\nhttp://imgur.com/a/AYSjC#8&quot; rel=&quot;nofollow&quot; target=&quot;_NEW&quot;&gt;\nhttp://imgur.com/a/AYSjC#8&lt;/a&gt;\n\n\n\n\nLook forward to more quality 1080p bluRay releases. Enjoy.","torrent":{"xt":"urn:btih:74f691063d88671d63a84732ea748f0e38319cba","amp;dn":"My.Week.With.Marilyn.2011.1080p.Blu-ray.DTS.x264-Zenstar75.mkv","amp;tr":["udp%3A%2F%2Ftracker.openbittorrent.com%3A80","udp%3A%2F%2Fopen.demonii.com%3A1337","udp%3A%2F%2Ftracker.coppersurfer.tk%3A6969","udp%3A%2F%2Fexodus.desync.com%3A6969"],"infoHash":"74f691063d88671d63a84732ea748f0e38319cba","infoHashBuffer":{"type":"Buffer","data":[116,246,145,6,61,136,103,29,99,168,71,50,234,116,143,14,56,49,156,186]},"announce":[],"urlList":[]}}